<?xml version="1.0" encoding="UTF-8" standalone="no"?>
<!-- Created with Inkscape (http://www.inkscape.org/) -->

<svg
   width="80.587082mm"
   height="14.975753mm"
   viewBox="0 0 80.587082 14.975753"
   version="1.1"
   id="svg1"
   xml:space="preserve"
   inkscape:version="1.3.1 (9b9bdc1480, 2023-11-25, custom)"
   sodipodi:docname="alternate-logo.svg"
   xmlns:inkscape="http://www.inkscape.org/namespaces/inkscape"
   xmlns:sodipodi="http://sodipodi.sourceforge.net/DTD/sodipodi-0.dtd"
   xmlns="http://www.w3.org/2000/svg"
   xmlns:svg="http://www.w3.org/2000/svg"><sodipodi:namedview
     id="namedview1"
     pagecolor="#ffffff"
     bordercolor="#000000"
     borderopacity="0.25"
     inkscape:showpageshadow="2"
     inkscape:pageopacity="0.0"
     inkscape:pagecheckerboard="0"
     inkscape:deskcolor="#d1d1d1"
     inkscape:document-units="mm"
     showguides="true"
     inkscape:zoom="1.149655"
     inkscape:cx="173.96524"
     inkscape:cy="4.3491309"
     inkscape:window-width="1366"
     inkscape:window-height="654"
     inkscape:window-x="0"
     inkscape:window-y="0"
     inkscape:window-maximized="1"
     inkscape:current-layer="layer1"><sodipodi:guide
       position="44.515529,214.26192"
       orientation="0,-1"
       id="guide9"
       inkscape:locked="false" /></sodipodi:namedview><defs
     id="defs1" /><g
     inkscape:label="Layer 1"
     inkscape:groupmode="layer"
     id="layer1"><path
       style="fill:#000000"
       id="path1"
       d="" /><path
       style="font-size:11.9079px;font-family:'Zen Dots';-inkscape-font-specification:'Zen Dots';fill:#5a8bbe;stroke-width:0.337546;stroke-linecap:round;fill-opacity:1"
       d="m 16.689323,12.356015 v -1.548027 l 6.847043,0.01191 q 0.523947,0 0.797829,-0.238158 0.28579,-0.250066 0.28579,-0.7978295 0,-0.5477634 -0.28579,-0.7859213 -0.273882,-0.2500659 -0.797829,-0.2500659 h -4.263028 q -1.321777,0 -2.060067,-0.6311187 -0.726382,-0.6430266 -0.726382,-1.8814482 0,-1.2384216 0.726382,-1.8695403 0.73829,-0.6430266 2.060067,-0.6430266 h 6.692239 v 1.548027 l -6.489805,-0.011908 q -0.51204,0 -0.797829,0.238158 -0.28579,0.2262501 -0.28579,0.7382898 0,0.5120397 0.28579,0.7501977 0.285789,0.2262501 0.797829,0.2262501 H 23.7388 q 1.321777,0 2.048159,0.6549345 0.73829,0.6430266 0.73829,1.9171718 0,1.2622376 -0.73829,1.9171716 -0.726382,0.654935 -2.048159,0.654935 z m 10.848096,2.619738 V 6.163907 h 4.405923 q 1.595658,0 2.488751,0.7859214 0.893092,0.7859214 0.893092,2.2744088 0,1.5003958 -0.893092,2.2863168 -0.893093,0.785921 -2.488751,0.785921 h -2.679278 v 2.679278 z m 4.405923,-7.4424375 h -2.679278 v 3.3937515 h 2.679278 q 0.774013,0 1.178882,-0.416777 Q 33.539,10.081606 33.539,9.2242372 33.539,8.3787764 33.122224,7.9619999 32.717355,7.5333155 31.943342,7.5333155 Z m 6.084931,4.7631595 q -0.964539,0 -1.476579,-0.488223 -0.51204,-0.488224 -0.51204,-1.393225 0,-0.8930923 0.51204,-1.3813162 0.51204,-0.4882238 1.476579,-0.4882238 h 4.572634 V 8.2596974 q 0,-0.7263819 -0.714474,-0.7263819 h -5.04895 V 6.163907 h 5.50145 q 1.083619,0 1.536119,0.5001318 0.452501,0.4882239 0.452501,1.3813164 v 4.2511198 z m 0.309606,-1.369408 h 4.263028 V 9.9148954 h -4.263028 q -0.22625,0 -0.357237,0.1428946 -0.119079,0.130987 -0.119079,0.357237 0,0.22625 0.119079,0.369145 0.130987,0.142895 0.357237,0.142895 z m 7.299531,1.369408 V 6.163907 h 4.691712 q 1.035988,0 1.524211,0.5239476 0.488224,0.5120397 0.488224,1.3575006 v 1.2741452 h -1.750461 v -1.059803 q 0,-0.714474 -0.714474,-0.714474 h -2.488751 v 4.7512516 z m 7.656774,0 V 3.782327 h 1.726646 v 2.38158 h 4.120133 q 1.047895,0 1.595659,0.5001318 0.559671,0.4882239 0.559671,1.4051322 0,1.5003953 -1.428948,1.7861849 l 1.452764,2.4411191 H 59.379121 L 57.973989,9.9268033 H 55.02083 V 12.296475 Z M 59.057608,7.5214076 H 55.02083 v 1.0478952 h 4.036778 q 0.238158,0 0.369145,-0.1428948 0.142895,-0.1428948 0.142895,-0.3929607 0,-0.5120397 -0.51204,-0.5120397 z m 3.512828,4.7750674 V 3.782327 H 71.90623 V 5.330354 H 64.4757 v 1.8814482 h 6.739871 v 1.548027 H 64.4757 v 1.9886188 h 7.43053 v 1.548027 z m 18.016643,0 V 3.782327 h -1.726646 v 8.514148 z m -0.297698,0 v -1.369408 h -4.108225 q -0.774014,0 -1.19079,-0.416777 -0.404869,-0.428684 -0.404869,-1.2741449 0,-0.8573687 0.404869,-1.2741452 0.416776,-0.4286844 1.19079,-0.4286844 h 3.989146 V 6.163907 h -3.989146 q -1.595659,0 -2.488751,0.7859214 -0.893093,0.7859214 -0.893093,2.2863167 0,1.4884879 0.893093,2.2744089 0.893092,0.785921 2.488751,0.785921 z"
       id="text4"
       aria-label="SparkEd" /><g
       id="g9"
       transform="translate(-3.035439,-28.885101)"><rect
         style="opacity:1;fill:#737373;fill-opacity:1;stroke-width:1;stroke-linecap:round"
         id="rect6"
         width="2.772002"
         height="13.909771"
         x="3.0354388"
         y="28.885101"
         rx="0.60994995"
         ry="0.60994995" /><rect
         style="opacity:1;fill:#ff914d;fill-opacity:1;stroke-width:1;stroke-linecap:round"
         id="rect7"
         width="2.7720022"
         height="11.42939"
         x="5.8074408"
         y="31.365479"
         rx="0.60994995"
         ry="0.60994995" /><rect
         style="opacity:1;fill:#7073ee;fill-opacity:1;stroke-width:1;stroke-linecap:round"
         id="rect8"
         width="2.7720013"
         height="13.273957"
         x="8.579443"
         y="29.520914"
         rx="0.60994995"
         ry="0.60994995" /><rect
         style="opacity:1;fill:#03989e;fill-opacity:1;stroke-width:1;stroke-linecap:round"
         id="rect9"
         width="2.7720022"
         height="11.582045"
         x="5.1304755"
         y="33.073318"
         rx="0.60994995"
         ry="0.60994995"
         transform="rotate(-10.820112)" /></g></g></svg>
