<?xml version="1.0" encoding="UTF-8" standalone="no"?>
<!-- Created with Inkscape (http://www.inkscape.org/) -->

<svg
   width="166.38005mm"
   height="121.30247mm"
   version="1.1"
   viewBox="0 0 166.38004 121.30246"
   id="svg14"
   xmlns="http://www.w3.org/2000/svg"
   xmlns:svg="http://www.w3.org/2000/svg">
  <rect
     width="166.38005"
     height="121.30247"
     fill="#e6e6e6"
     stroke-width="0.924847"
     id="rect1"
     x="0"
     y="0" />
  <g
     transform="translate(-8.1465366,-92.963645)"
     id="g14">
    <path
       d="m 66.12,123.54 v 37.577 h 50.433 V 123.54 Z m 2.5341,2.5345 h 45.365 v 32.508 h -45.365 z m 27.364,5.68 a 4.6824,4.6824 0 0 0 -4.6822,4.6826 4.6824,4.6824 0 0 0 4.6822,4.6826 4.6824,4.6824 0 0 0 4.6826,-4.6826 4.6824,4.6824 0 0 0 -4.6826,-4.6826 z m -14.584,4.5291 -10.246,10.246 v 9.519 h 40.296 v -4.1452 l -8.4038,-8.4038 -7.2156,7.2152 z"
       fill="#bfbfbf"
       id="path1" />
    <g
       transform="matrix(0.69885,0,0,0.69885,27.506,55.318)"
       fill="#b3b3b3"
       stroke-width="0.26458"
       aria-label="No picture"
       id="g13">
      <path
         d="m 35.432,180.61 h 2.4892 v -8.0941 h 0.03387 l 5.0292,8.0941 h 2.6585 v -12.09 h -2.4892 v 8.111 H 43.1197 L 38.0736,168.52 H 35.432 Z"
         id="path2" />
      <path
         d="m 47.454,176.24 c 0,2.7771 1.778,4.6059 4.5212,4.6059 2.7601,0 4.5381,-1.8288 4.5381,-4.6059 0,-2.794 -1.778,-4.6228 -4.5381,-4.6228 -2.7432,0 -4.5212,1.8288 -4.5212,4.6228 z m 2.4045,0 c 0,-1.4055 0.49107,-2.8109 2.1167,-2.8109 1.6425,0 2.1336,1.4055 2.1336,2.8109 0,1.3885 -0.49107,2.794 -2.1336,2.794 -1.6256,0 -2.1167,-1.4055 -2.1167,-2.794 z"
         id="path3" />
      <path
         d="m 62.779,183.69 h 2.4045 v -4.1656 h 0.03387 c 0.57573,0.8636 1.5748,1.3208 2.6247,1.3208 2.5569,0 3.8439,-2.1844 3.8439,-4.5212 0,-2.4892 -1.2361,-4.7075 -3.9793,-4.7075 -1.0837,0 -2.032,0.42334 -2.6077,1.3547 H 65.0651 v -1.1176 h -2.286 z m 4.4196,-4.6567 c -1.5579,0 -2.0997,-1.3547 -2.0997,-2.7771 0,-1.4224 0.508,-2.8279 2.0828,-2.8279 1.5409,0 2.0997,1.4393 2.0997,2.8279 0,1.4224 -0.508,2.7771 -2.0828,2.7771 z"
         id="path4" />
      <path
         d="m 73.193,180.61 h 2.4045 v -8.7545 H 73.193 Z m 2.4045,-12.09 H 73.193 v 1.9812 h 2.4045 z"
         id="path5" />
      <path
         d="m 85.808,174.94 c -0.1524,-2.2352 -2.0489,-3.3189 -4.1148,-3.3189 -2.8448,0 -4.4704,2.0151 -4.4704,4.7413 0,2.6247 1.778,4.4873 4.4196,4.4873 2.3029,0 3.9116,-1.27 4.2164,-3.5899 h -2.3199 c -0.1524,1.0668 -0.79586,1.778 -1.9135,1.778 -1.5071,0 -1.9981,-1.5071 -1.9981,-2.7601 0,-1.2869 0.508,-2.8448 2.0489,-2.8448 0.99906,0 1.6256,0.52493 1.778,1.5071 z"
         id="path6" />
      <path
         d="m 90.262,169.23 h -2.4045 v 2.6247 h -1.4563 v 1.6087 h 1.4563 v 5.1647 c 0,1.7441 1.2869,2.0828 2.7601,2.0828 0.47413,0 0.99906,-0.0169 1.4055,-0.0847 v -1.8796 c -0.254,0.0508 -0.49107,0.0677 -0.74507,0.0677 -0.8128,0 -1.016,-0.2032 -1.016,-1.016 v -4.3349 h 1.7611 v -1.6087 h -1.7611 z"
         id="path7" />
      <path
         d="m 101.39,171.85 h -2.4045 v 4.5889 c 0,1.778 -0.5588,2.5061 -1.8627,2.5061 -1.1176,0 -1.5409,-0.7112 -1.5409,-2.1505 V 171.85 h -2.4045 v 5.3848 c 0,2.1675 0.64346,3.6068 3.2004,3.6068 1.016,0 2.0659,-0.47413 2.6755,-1.4563 h 0.0508 v 1.2192 h 2.286 z"
         id="path8" />
      <path
         d="m 103.22,180.61 h 2.4045 v -3.9455 c 0,-1.5409 0.6096,-2.8109 2.3707,-2.8109 0.28786,0 0.64346,0.0339 0.86359,0.0847 v -2.2352 c -0.1524,-0.0508 -0.3556,-0.0847 -0.52493,-0.0847 -1.1684,0 -2.3537,0.762 -2.794,1.8627 h -0.0339 v -1.6256 h -2.286 z"
         id="path9" />
      <path
         d="m 117.8,176.82 c 0.16933,-2.6924 -1.27,-5.1985 -4.2503,-5.1985 -2.6585,0 -4.4704,1.9981 -4.4704,4.6228 0,2.7093 1.7103,4.6059 4.4704,4.6059 1.9812,0 3.4205,-0.88053 4.0979,-2.9464 h -2.1167 c -0.1524,0.54186 -0.93134,1.1345 -1.8965,1.1345 -1.3377,0 -2.0828,-0.69427 -2.1505,-2.2183 z m -6.3161,-1.524 c 0.0339,-0.67733 0.47413,-1.8627 1.9981,-1.8627 1.1684,0 1.6933,0.64346 1.9135,1.8627 z"
         id="path10" />
      <path
         d="m 131.9,171.85 h -2.4892 l -1.9135,5.9944 h -0.0339 l -1.9812,-5.9944 h -2.5739 l 3.0819,8.2126 c 0.27093,0.69426 0,1.5579 -0.82974,1.6425 -0.47413,0.0169 -0.94826,-0.0508 -1.4055,-0.0847 v 1.9812 c 0.49107,0.0508 0.98213,0.0847 1.4732,0.0847 1.6595,0 2.4892,-0.57574 3.0141,-1.9812 z"
         id="path11" />
      <path
         d="m 141.01,176.82 c 0.16933,-2.6924 -1.27,-5.1985 -4.2503,-5.1985 -2.6585,0 -4.4704,1.9981 -4.4704,4.6228 0,2.7093 1.7103,4.6059 4.4704,4.6059 1.9812,0 3.4205,-0.88053 4.0979,-2.9464 h -2.1167 c -0.1524,0.54186 -0.93133,1.1345 -1.8965,1.1345 -1.3377,0 -2.0828,-0.69427 -2.1505,-2.2183 z m -6.3161,-1.524 c 0.0339,-0.67733 0.47413,-1.8627 1.9981,-1.8627 1.1684,0 1.6933,0.64346 1.9135,1.8627 z"
         id="path12" />
      <path
         d="m 145.48,169.23 h -2.4045 v 2.6247 h -1.4563 v 1.6087 h 1.4563 v 5.1647 c 0,1.7441 1.2869,2.0828 2.7601,2.0828 0.47413,0 0.99906,-0.0169 1.4055,-0.0847 v -1.8796 c -0.254,0.0508 -0.49106,0.0677 -0.74506,0.0677 -0.8128,0 -1.016,-0.2032 -1.016,-1.016 v -4.3349 h 1.7611 v -1.6087 h -1.7611 z"
         id="path13" />
    </g>
  </g>
</svg>
